#!OML:ASF E:\Mandelcareful walks\Project 1\Capture day 1\Session 1\Subject1.ASF
:FULLY-SPECIFIED
:DEGREES
674
root 5.65611 16.8425 -2.63878 -51.7555 -83.2872 52.7982
lowerback -1.35364 -0.433659 -3.47911
upperback 3.68568 -0.552739 1.49513
thorax 4.6194 -0.44995 3.4707
lowerneck -20.0684 3.57526 -0.744844
upperneck 42.9138 4.49369 -0.627735
head 20.2901 0.953878 0.623355
rclavicle -8.94531e-015 -6.36111e-015
rhumerus -26.8928 -9.04138 -80.1657
rradius 26.2877
rwrist -5.00935
rhand -8.62313 -30.8602
rfingers 7.12502
rthumb 17.3092 -60.1094
lclavicle -8.94531e-015 -6.36111e-015
lhumerus -26.5256 1.78909 91.258
lradius 25.6632
lwrist 6.61833
lhand -19.1062 -12.1377
lfingers 7.12502
lthumb 7.20262 17.7197
rfemur -4.55952 -11.2906 14.4209
rtibia 22.7552
rfoot -19.0477 -17.0586
rtoes 6.38119
lfemur -1.54957 -7.16567 -13.8894
ltibia 13.5793
lfoot -12.422 18.4969
ltoes -5.298
675
root 5.66344 16.8379 -2.65009 -52.7105 -82.9571 53.6793
lowerback -1.43133 -0.496646 -3.6625
upperback 3.71943 -0.623846 1.41261
thorax 4.70722 -0.492702 3.48383
lowerneck -19.8055 3.58532 -0.598937
upperneck 42.7371 4.51008 -0.781912
head 20.1066 0.972217 0.518466
rclavicle 6.95746e-015 -1.03368e-014
rhumerus -26.9598 -8.80198 -80.2554
rradius 26.3665
rwrist -5.2714
rhand -8.59214 -31.1436
rfingers 7.12502
rthumb 17.339 -60.3902
lclavicle 6.95746e-015 -1.03368e-014
lhumerus -26.6902 2.21178 91.0464
lradius 25.5726
lwrist 5.96487
lhand -19.0686 -12.5611
lfingers 7.12502
lthumb 7.23896 17.2951
rfemur -4.56905 -11.4826 14.0537
rtibia 22.9458
rfoot -19.0854 -16.9639
rtoes 6.43692
lfemur -1.41862 -7.32548 -14.226
ltibia 13.4211
lfoot -12.322 18.5388
ltoes -5.61218
676
root 5.67214 16.834 -2.66663 -53.146 -82.7544 54.0401
lowerback -1.1717 -0.553745 -3.77273
upperback 3.57701 -0.703812 1.39787
thorax 4.41929 -0.526751 3.52819
lowerneck -19.5072 3.61062 -0.660906
upperneck 42.6977 4.50515 -0.670047
head 19.9836 0.97763 0.577436
rclavicle -2.5842e-015 -1.03368e-014
rhumerus -27.306 -8.59491 -80.2631
rradius 26.5725
rwrist -5.32978
rhand -8.5266 -31.3194
rfingers 7.12502
rthumb 17.4021 -60.5604
lclavicle -2.5842e-015 -1.03368e-014
lhumerus -27.03 2.49147 90.9111
lradius 25.5355
lwrist 5.60048
lhand -19.0726 -12.6883
lfingers 7.12502
lthumb 7.23504 17.168
rfemur -4.64613 -11.4976 13.8973
rtibia 23.2327
rfoot -19.2582 -16.982
rtoes 6.63051
lfemur -1.2354 -7.45718 -14.3806
ltibia 13.1196
lfoot -12.2368 18.651
ltoes -5.50912
677
root 5.68438 16.8306 -2.69063 -54.544 -82.573 55.3949
lowerback -1.01169 -0.514154 -4.00351
upperback 3.57141 -0.649209 1.38895
thorax 4.32152 -0.505394 3.65298
lowerneck -19.5165 3.57851 -0.900081
upperneck 42.716 4.46077 -0.457139
head 19.9777 0.951706 0.717017
rclavicle -1.86858e-014 1.59028e-015
rhumerus -27.3268 -8.77649 -80.1655
rradius 26.5856
rwrist -5.11633
rhand -8.66326 -30.999
rfingers 7.12502
rthumb 17.2706 -60.2516
lclavicle -1.86858e-014 1.59028e-015
lhumerus -26.9682 2.51741 90.9285
lradius 25.3332
lwrist 5.6671
lhand -19.1584 -12.8567
lfingers 7.12502
lthumb 7.15228 17.0025
rfemur -4.7687 -11.3715 13.729
rtibia 23.4666
rfoot -19.439 -16.9864
rtoes 6.90379
lfemur -1.1315 -7.54572 -14.5682
ltibia 12.9042
lfoot -12.086 18.8131
ltoes -5.75361
678
root 5.695 16.8268 -2.71569 -55.1097 -82.6111 55.8933
lowerback -0.948434 -0.425038 -3.92428
upperback 3.64383 -0.536563 1.39777
thorax 4.34937 -0.44948 3.62316
lowerneck -19.6726 3.52917 -0.997778
upperneck 42.8316 4.38822 -0.369264
head 20.0933 0.914991 0.766319
rclavicle -3.97569e-015 -3.97569e-015
rhumerus -27.2016 -9.07701 -80.1377
rradius 26.4515
rwrist -4.80664
rhand -8.57937 -30.8122
rfingers 7.12502
rthumb 17.3513 -60.0577
lclavicle -3.97569e-015 -3.97569e-015
lhumerus -26.8356 2.24779 90.9447
lradius 25.1662
lwrist 5.92315
lhand -19.1514 -12.837
lfingers 7.12502
lthumb 7.15899 17.0219
rfemur -4.82898 -11.2782 13.8261
rtibia 23.5862
rfoot -19.4732 -16.9524
rtoes 7.12573
lfemur -1.09464 -7.52575 -14.4818
ltibia 12.9062
lfoot -11.9193 18.8286
ltoes -6.35361
679
root 5.70724 16.8248 -2.73706 -53.6786 -82.8543 54.4739
lowerback -0.75686 -0.414244 -3.44511
upperback 3.53659 -0.546029 1.46859
thorax 4.12264 -0.432097 3.42697
lowerneck -19.7159 3.56335 -0.964327
upperneck 43.0453 4.40951 -0.363008
head 20.252 0.916544 0.768585
rclavicle 9.74045e-015 -7.15625e-015
rhumerus -27.3763 -9.00397 -80.1956
rradius 26.4969
rwrist -4.76224
rhand -8.44958 -30.7487
rfingers 7.12502
rthumb 17.4762 -59.9831
lclavicle 9.74045e-015 -7.15625e-015
lhumerus -27.1404 2.29659 90.7899
lradius 25.348
lwrist 5.92031
lhand -18.8848 -12.5298
lfingers 7.12502
lthumb 7.41633 17.3202
rfemur -4.95598 -11.3428 14.2647
rtibia 23.636
rfoot -19.4442 -16.9172
rtoes 7.16386
lfemur -1.25958 -7.49713 -14.0408
ltibia 13.0538
lfoot -11.8831 18.7359
ltoes -6.68857
680
root 5.72079 16.8238 -2.75497 -50.8725 -83.0899 51.727
lowerback -0.626368 -0.486958 -2.87832
upperback 3.4327 -0.668483 1.62163
thorax 3.94358 -0.472321 3.26178
lowerneck -19.7107 3.6717 -0.936712
upperneck 43.1494 4.60667 -0.457095
head 20.3269 0.97621 0.759514
rclavicle 2.5842e-015 -1.59028e-015
rhumerus -27.492 -8.63888 -80.2467
rradius 26.6041
rwrist -5.16483
rhand -8.35894 -30.7959
rfingers 7.12502
rthumb 17.5634 -60.0225
lclavicle 2.5842e-015 -1.59028e-015
lhumerus -27.3467 2.4888 90.7168
lradius 25.5239
lwrist 5.96065
lhand -18.9039 -12.2451
lfingers 7.12502
lthumb 7.39789 17.6056
rfemur -5.11835 -11.5918 14.7773
rtibia 23.694
rfoot -19.4462 -16.8542
rtoes 6.97438
lfemur -1.50583 -7.54537 -13.5
ltibia 13.1811
lfoot -11.8779 18.6481
ltoes -6.76612
681
root 5.73176 16.8199 -2.77702 -48.6072 -83.2087 49.4469
lowerback -0.649879 -0.544102 -2.47814
upperback 3.46338 -0.761124 1.73113
thorax 3.99093 -0.50965 3.14559
lowerneck -19.5659 3.76711 -0.841933
upperneck 43.0565 4.77917 -0.590792
head 20.231 1.04524 0.710576
rclavicle -1.72943e-014 -1.59028e-014
rhumerus -27.3733 -8.38453 -80.3377
rradius 26.4956
rwrist -5.53785
rhand -8.25278 -30.9324
rfingers 7.12502
rthumb 17.6656 -60.1499
lclavicle -1.72943e-014 -1.59028e-014
lhumerus -27.2034 2.59856 90.6763
lradius 25.3417
lwrist 6.05865
lhand -19.1278 -12.4311
lfingers 7.12502
lthumb 7.1818 17.4271
rfemur -5.2057 -11.8139 15.1431
rtibia 23.8188
rfoot -19.5187 -16.773
rtoes 6.8537
lfemur -1.59648 -7.56117 -13.0983
ltibia 13.1956
lfoot -11.8578 18.5386
ltoes -6.48404
682
root 5.74249 16.8135 -2.80221 -49.6969 -82.9562 50.4269
lowerback -0.640357 -0.492625 -2.56403
upperback 3.58837 -0.688392 1.6261
thorax 4.10999 -0.478633 3.08797
lowerneck -19.4942 3.74729 -0.689544
upperneck 42.9428 4.72314 -0.664876
head 20.1432 1.04807 0.633497
rclavicle -5.96354e-016 1.11319e-014
rhumerus -27.2574 -8.56042 -80.3662
rradius 26.4396
rwrist -5.45157
rhand -8.41311 -30.8034
rfingers 7.12502
rthumb 17.5113 -60.0348
lclavicle -5.96354e-016 1.11319e-014
lhumerus -26.9876 2.69233 90.5282
lradius 25.0587
lwrist 5.73255
lhand -19.1255 -12.9895
lfingers 7.12502
lthumb 7.18404 16.8686
rfemur -5.20234 -11.86 14.9128
rtibia 24.0119
rfoot -19.7026 -16.6925
rtoes 7.18445
lfemur -1.48406 -7.52639 -13.3006
ltibia 13.087
lfoot -11.8066 18.4373
ltoes -6.13817
683
root 5.75369 16.8076 -2.82436 -51.6544 -82.5266 52.264
lowerback -0.605923 -0.457291 -2.84702
upperback 3.74566 -0.632703 1.52121
thorax 4.25326 -0.464318 3.14098
lowerneck -19.5998 3.65563 -0.770446
upperneck 42.9421 4.6114 -0.644785
head 20.1699 0.996586 0.636548
rclavicle 1.98785e-015 2.54444e-014
rhumerus -27.0653 -8.63771 -80.2963
rradius 26.4943
rwrist -5.30321
rhand -8.62177 -30.6051
rfingers 7.12502
rthumb 17.3105 -59.8542
lclavicle 1.98785e-015 2.54444e-014
lhumerus -26.8363 2.78209 90.4623
lradius 25.0651
lwrist 5.27177
lhand -18.9549 -13.1547
lfingers 7.12502
lthumb 7.34868 16.6977
rfemur -5.16681 -11.8633 14.4276
rtibia 24.1949
rfoot -19.9102 -16.6337
rtoes 8.09274
lfemur -1.32354 -7.41661 -13.7505
ltibia 12.9084
lfoot -11.4963 18.2749
ltoes -6.70678
684
root 5.76795 16.8049 -2.85636 -52.2541 -82.4568 52.7991
lowerback -0.455 -0.44511 -2.89444
upperback 3.75749 -0.62246 1.58433
thorax 4.18082 -0.461673 3.23461
lowerneck -19.5724 3.70854 -0.802316
upperneck 42.9445 4.77889 -0.792791
head 20.1706 1.03416 0.60448
rclavicle 1.41137e-014 -1.59028e-015
rhumerus -27.0194 -8.33058 -80.2796
rradius 26.5473
rwrist -5.48622
rhand -8.72385 -30.5711
rfingers 7.12502
rthumb 17.2122 -59.8288
lclavicle 1.41137e-014 -1.59028e-015
lhumerus -26.8045 2.95161 90.4342
lradius 25.1589
lwrist 5.1891
lhand -18.7996 -12.9591
lfingers 7.12502
lthumb 7.49862 16.888
rfemur -5.30887 -11.5643 14.4856
rtibia 24.4674
rfoot -20.153 -16.8378
rtoes 8.89483
lfemur -1.16081 -7.20433 -13.7149
ltibia 12.5583
lfoot -10.9861 18.1526
ltoes -7.29998
685
root 5.7763 16.8023 -2.89929 -51.1752 -82.8574 51.569
lowerback -0.191091 -0.332022 -2.50073
upperback 3.72632 -0.495167 1.75433
thorax 3.98525 -0.385326 3.19545
lowerneck -19.4781 3.70538 -0.786896
upperneck 43.0004 4.78215 -0.844544
head 20.1845 1.02818 0.574196
rclavicle 1.98785e-016 -3.02153e-014
rhumerus -27.2115 -8.31974 -80.2386
rradius 26.616
rwrist -5.59373
rhand -8.64958 -30.8489
rfingers 7.12502
rthumb 17.2837 -60.1003
lclavicle 1.98785e-016 -3.02153e-014
lhumerus -26.8974 2.88847 90.4287
lradius 25.2022
lwrist 5.47673
lhand -18.7398 -12.6742
lfingers 7.12502
lthumb 7.55629 17.1708
rfemur -5.34653 -10.9802 15.1915
rtibia 24.6475
rfoot -20.4051 -17.2447
rtoes 9.09709
lfemur -0.936467 -7.05079 -13.0748
ltibia 12.3199
lfoot -10.7306 18.1674
ltoes -6.77192
686
root 5.78172 16.8004 -2.91042 -52.0647 -82.1529 52.4961
lowerback -0.174592 -0.334127 -2.66593
upperback 3.66176 -0.483102 1.52671
thorax 3.90707 -0.376722 3.05294
lowerneck -19.3571 3.67427 -0.761337
upperneck 43.0459 4.72765 -0.87305
head 20.1824 1.00716 0.540922
rclavicle 3.77691e-015 -7.95139e-015
rhumerus -27.366 -8.64912 -80.0992
rradius 26.5551
rwrist -5.49632
rhand -8.51164 -31.09
rfingers 7.12502
rthumb 17.4165 -60.3297
lclavicle 3.77691e-015 -7.95139e-015
lhumerus -27.1316 2.45697 90.5079
lradius 25.4039
lwrist 5.86123
lhand -18.6627 -12.284
lfingers 7.12502
lthumb 7.63068 17.5583
rfemur -5.36054 -11.9352 14.3892
rtibia 24.7501
rfoot -20.2741 -16.6337
rtoes 8.37892
lfemur -0.99703 -7.24456 -13.7582
ltibia 12.2762
lfoot -10.5235 18.1249
ltoes -6.66597
687
root 5.78603 16.7973 -2.93233 -51.5924 -81.9085 51.9485
lowerback -0.211147 -0.338712 -2.52695
upperback 3.72586 -0.491546 1.48809
thorax 3.99283 -0.378322 2.93406
lowerneck -19.2812 3.65881 -0.772978
upperneck 43.092 4.70902 -0.890638
head 20.1918 0.994556 0.528547
rclavicle 1.8487e-014 1.59028e-015
rhumerus -27.2659 -8.74333 -80.0356
rradius 26.4378
rwrist -5.39188
rhand -8.52162 -30.9952
rfingers 7.12502
rthumb 17.4069 -60.2358
lclavicle 1.8487e-014 1.59028e-015
lhumerus -27.2573 2.22901 90.525
lradius 25.7152
lwrist 6.10474
lhand -18.5438 -12.0498
lfingers 7.12502
lthumb 7.74553 17.7884
rfemur -5.31147 -12.4224 14.2204
rtibia 24.8586
rfoot -20.2114 -16.3693
rtoes 7.94127
lfemur -0.980325 -7.19098 -13.8427
ltibia 12.2414
lfoot -10.2368 17.9311
ltoes -7.17259
688
root 5.79982 16.7942 -2.96052 -50.41 -81.8821 50.751
lowerback -0.358643 -0.383405 -2.29993
upperback 3.89171 -0.561642 1.57464
thorax 4.25233 -0.415047 2.89236
lowerneck -19.4649 3.6141 -0.997274
upperneck 43.1402 4.64826 -0.682284
head 20.2582 0.962511 0.664664
rclavicle 8.54774e-015 6.36111e-015
rhumerus -26.9216 -8.64349 -80.0244
rradius 26.3405
rwrist -5.14319
rhand -8.45717 -30.6828
rfingers 7.12502
rthumb 17.4689 -59.9179
lclavicle 8.54774e-015 6.36111e-015
lhumerus -27.1149 2.442 90.4737
lradius 25.9757
lwrist 6.10877
lhand -18.4569 -11.9696
lfingers 7.12502
lthumb 7.82931 17.8655
rfemur -5.41768 -12.4876 14.432
rtibia 25.0018
rfoot -20.2734 -16.4346
rtoes 7.98709
lfemur -1.09253 -6.9543 -13.5929
ltibia 12.1917
lfoot -9.90371 17.6387
ltoes -7.10436
